<?xml version="1.0" encoding="UTF-8"?>
<svg id="Layer_1" xmlns="http://www.w3.org/2000/svg" version="1.1" viewBox="0 0 1080 1080">
  <!-- Generator: Adobe Illustrator 29.5.1, SVG Export Plug-In . SVG Version: 2.1.0 Build 141)  -->
  <defs>
    <style>
      .st0 {
        fill: #c03b2b;
      }
    </style>
  </defs>
  <path className="st0" d="M632.4,465.16c-5.61,0-11.21,2.2-15.48,6.47l-3.66,3.66,30.96,30.96s3.66-3.66,3.66-3.66c8.57-8.57,8.55-22.41,0-30.96-4.29-4.28-9.87-6.47-15.48-6.47ZM606.36,483.31c-1.02.14-1.97.65-2.67,1.41l-146.1,146.24c-.58.53-1.02,1.21-1.27,1.97l-9.01,33.78c-.4,1.55.05,3.18,1.18,4.31s2.76,1.58,4.31,1.18l33.78-9.01c.76-.25,1.44-.69,1.97-1.27l146.24-146.1c1.79-1.74,1.81-4.61.07-6.4-1.74-1.79-4.61-1.81-6.4-.07l-145.39,145.39-18.3-18.3,145.39-145.39c1.35-1.3,1.76-3.33,1-5.05-.76-1.72-2.5-2.8-4.38-2.69h-.42Z"/>
</svg>